<svg width="288" height="63" viewBox="0 0 288 63" fill="none" xmlns="http://www.w3.org/2000/svg">
<path d="M76.7993 17.6334H83.0337C83.1403 17.9531 83.4524 18.2271 83.97 18.4555C84.4876 18.6687 85.1803 18.8361 86.0481 18.9579C86.9311 19.0645 87.9512 19.1178 89.1082 19.1178C90.2501 19.1178 91.1483 19.0873 91.8029 19.0264C92.4728 18.9503 92.9448 18.8285 93.2188 18.661C93.4929 18.4783 93.6299 18.2348 93.6299 17.9303C93.6299 17.641 93.4091 17.4203 92.9676 17.268C92.5261 17.1005 91.742 16.9864 90.6154 16.9255C89.4888 16.8646 87.9055 16.8341 85.8654 16.8341C84.343 16.8341 83.0261 16.7656 81.9147 16.6286C80.8185 16.4763 79.9127 16.248 79.1971 15.9435C78.4968 15.6238 77.9792 15.2279 77.6442 14.756C77.3093 14.2688 77.1418 13.6903 77.1418 13.0204C77.1418 11.8633 77.5301 10.9118 78.3065 10.1658C79.0982 9.4046 80.2857 8.84129 81.869 8.47591C83.4676 8.0953 85.462 7.90499 87.8522 7.90499C91.3538 7.90499 94.0257 8.41501 95.8679 9.43504C97.7252 10.4399 98.6539 11.8938 98.6539 13.7968H92.7392C92.6631 13.2944 92.1912 12.9138 91.3234 12.655C90.4556 12.381 89.2224 12.2439 87.6238 12.2439C86.0405 12.2439 84.8606 12.3353 84.0842 12.518C83.3229 12.7007 82.9423 13.0128 82.9423 13.4543C82.9423 13.6827 83.0489 13.8653 83.262 14.0024C83.4752 14.1394 83.8406 14.2536 84.3582 14.3449C84.8911 14.421 85.6371 14.4743 86.5962 14.5048C87.5553 14.5352 88.7733 14.5504 90.2501 14.5504C91.8791 14.5504 93.2645 14.6342 94.4063 14.8017C95.5482 14.9539 96.4692 15.1899 97.1696 15.5096C97.8851 15.8293 98.4027 16.2404 98.7224 16.7428C99.0422 17.2299 99.202 17.8085 99.202 18.4783C99.202 19.6354 98.8366 20.5793 98.1059 21.3101C97.3751 22.0409 96.218 22.5813 94.6347 22.9315C93.0513 23.2817 90.9808 23.4567 88.4231 23.4567C86.9768 23.4567 85.6447 23.373 84.4267 23.2055C83.224 23.0381 82.1507 22.7945 81.2068 22.4748C80.2628 22.1398 79.4636 21.7364 78.8089 21.2644C78.1543 20.7772 77.6518 20.2368 77.3017 19.643C76.9668 19.034 76.7993 18.3642 76.7993 17.6334ZM101.478 7.24273H106.959V23H101.478V7.24273ZM119.984 23.3425C117.563 23.3425 115.546 23.1446 113.932 22.7488C112.333 22.353 111.131 21.7211 110.324 20.8534C109.532 19.9856 109.136 18.8437 109.136 17.4279C109.136 16.012 109.532 14.8702 110.324 14.0024C111.131 13.1194 112.333 12.4799 113.932 12.0841C115.546 11.673 117.563 11.4675 119.984 11.4675C122.389 11.4675 124.384 11.673 125.967 12.0841C127.565 12.4799 128.761 13.1194 129.552 14.0024C130.344 14.8702 130.74 16.012 130.74 17.4279C130.74 18.8437 130.344 19.9856 129.552 20.8534C128.761 21.7211 127.565 22.353 125.967 22.7488C124.384 23.1446 122.389 23.3425 119.984 23.3425ZM119.984 20.0312C121.11 20.0312 122.054 19.9399 122.815 19.7572C123.577 19.5593 124.155 19.27 124.551 18.8894C124.947 18.4936 125.145 18.0064 125.145 17.4279C125.145 16.8493 124.947 16.3622 124.551 15.9663C124.17 15.5705 123.599 15.2736 122.838 15.0757C122.077 14.8778 121.126 14.7788 119.984 14.7788C118.857 14.7788 117.898 14.8778 117.106 15.0757C116.33 15.2736 115.736 15.5705 115.325 15.9663C114.929 16.3469 114.731 16.8341 114.731 17.4279C114.731 18.0064 114.929 18.4936 115.325 18.8894C115.721 19.27 116.307 19.5593 117.083 19.7572C117.875 19.9399 118.842 20.0312 119.984 20.0312ZM131.987 11.8101H145.415V15.2355H131.987V11.8101ZM135.961 8.38456H141.442V23H135.961V8.38456ZM170.511 20.899L168.136 20.8534L173.092 11.8101H179.143L172.087 23H166.926L161.148 14.3221L163.843 14.3449L157.837 23H152.676L145.984 11.8101H152.013L156.672 20.8534H154.32L159.481 11.8101H165.533L170.511 20.899ZM186.312 5.94104V9.36654H180.511V5.94104H186.312ZM180.671 11.8101H186.152V23H180.671V11.8101ZM188.602 11.8101H194.082V23H188.602V11.8101ZM202.303 11.4675C203.202 11.4675 204.07 11.5665 204.907 11.7644C205.744 11.9471 206.49 12.2668 207.145 12.7235C207.815 13.1803 208.348 13.8045 208.743 14.5961C209.139 15.3878 209.337 16.385 209.337 17.5877V23H203.856V18.2728C203.856 17.131 203.559 16.3241 202.966 15.8521C202.372 15.365 201.299 15.1214 199.746 15.1214C198.924 15.1214 198.124 15.2127 197.348 15.3954C196.587 15.5781 195.902 15.7989 195.293 16.0577C194.684 16.3013 194.204 16.5448 193.854 16.7884L193.808 15.9206C193.869 15.6466 194.075 15.266 194.425 14.7788C194.79 14.2764 195.315 13.774 196.001 13.2716C196.686 12.7692 197.546 12.3429 198.581 11.9927C199.632 11.6426 200.872 11.4675 202.303 11.4675ZM211.394 11.8101H216.874V23H211.394V11.8101ZM225.095 11.4675C225.994 11.4675 226.862 11.5665 227.699 11.7644C228.536 11.9471 229.282 12.2668 229.937 12.7235C230.607 13.1803 231.14 13.8045 231.535 14.5961C231.931 15.3878 232.129 16.385 232.129 17.5877V23H226.648V18.2728C226.648 17.131 226.352 16.3241 225.758 15.8521C225.164 15.365 224.091 15.1214 222.538 15.1214C221.716 15.1214 220.916 15.2127 220.14 15.3954C219.379 15.5781 218.694 15.7989 218.085 16.0577C217.476 16.3013 216.996 16.5448 216.646 16.7884L216.6 15.9206C216.661 15.6466 216.867 15.266 217.217 14.7788C217.582 14.2764 218.107 13.774 218.793 13.2716C219.478 12.7692 220.338 12.3429 221.373 11.9927C222.424 11.6426 223.664 11.4675 225.095 11.4675ZM249.623 18.9808H255.013C254.876 19.8638 254.434 20.6326 253.688 21.2873C252.957 21.9419 251.884 22.4519 250.468 22.8173C249.067 23.1675 247.279 23.3425 245.101 23.3425C242.803 23.3425 240.816 23.1599 239.141 22.7945C237.482 22.4291 236.203 21.8125 235.305 20.9447C234.406 20.0769 233.957 18.9046 233.957 17.4279C233.957 15.9663 234.391 14.8017 235.259 13.9339C236.142 13.0508 237.413 12.419 239.073 12.0384C240.732 11.6578 242.742 11.4675 245.101 11.4675C247.416 11.4675 249.311 11.673 250.788 12.0841C252.265 12.4952 253.353 13.165 254.053 14.0937C254.754 15.0072 255.089 16.248 255.058 17.8161H239.529C239.605 18.2119 239.819 18.5773 240.169 18.9122C240.534 19.2472 241.09 19.5212 241.836 19.7344C242.597 19.9323 243.609 20.0312 244.873 20.0312C246.182 20.0312 247.256 19.9399 248.093 19.7572C248.946 19.5745 249.456 19.3157 249.623 18.9808ZM244.873 14.7788C243.259 14.7788 242.026 14.9539 241.174 15.3041C240.336 15.6542 239.841 16.0044 239.689 16.3545H249.737C249.631 15.9587 249.204 15.6009 248.458 15.2812C247.712 14.9463 246.517 14.7788 244.873 14.7788ZM256.888 11.8101H262.369V23H256.888V11.8101ZM268.261 16.0348C267.271 16.0348 266.366 16.1262 265.543 16.3089C264.721 16.4916 264.021 16.7123 263.442 16.9711C262.864 17.2147 262.43 17.4583 262.141 17.7019L262.095 16.6057C262.141 16.286 262.263 15.913 262.461 15.4868C262.658 15.0452 262.925 14.5961 263.26 14.1394C263.595 13.6674 264.006 13.2335 264.493 12.8377C264.98 12.4266 265.536 12.0993 266.16 11.8557C266.799 11.5969 267.5 11.4675 268.261 11.4675V16.0348ZM269.642 18.9808H274.689C274.902 19.3766 275.306 19.6506 275.899 19.8029C276.508 19.9551 277.376 20.0312 278.503 20.0312C279.37 20.0312 280.01 19.9856 280.421 19.8942C280.847 19.8029 281.121 19.6811 281.243 19.5288C281.38 19.3766 281.449 19.2167 281.449 19.0493C281.449 18.7904 281.304 18.6154 281.015 18.524C280.741 18.4175 280.269 18.3566 279.599 18.3413C278.929 18.3109 278.008 18.2957 276.836 18.2957C275.724 18.2957 274.727 18.25 273.844 18.1586C272.976 18.0521 272.238 17.8922 271.629 17.6791C271.02 17.4507 270.556 17.1386 270.236 16.7428C269.916 16.3469 269.756 15.8521 269.756 15.2584C269.756 14.5276 269.992 13.9186 270.464 13.4315C270.936 12.929 271.576 12.5408 272.382 12.2668C273.189 11.9775 274.118 11.772 275.169 11.6502C276.234 11.5284 277.346 11.4675 278.503 11.4675C280.421 11.4675 281.989 11.6654 283.207 12.0613C284.425 12.4419 285.323 12.9595 285.902 13.6141C286.48 14.2688 286.762 15.0072 286.747 15.8293H281.837C281.669 15.4335 281.35 15.1594 280.878 15.0072C280.421 14.8549 279.629 14.7788 278.503 14.7788C277.437 14.7788 276.661 14.8625 276.173 15.03C275.701 15.1823 275.465 15.4335 275.465 15.7836C275.465 16.012 275.58 16.1871 275.808 16.3089C276.052 16.4154 276.501 16.4916 277.155 16.5372C277.825 16.5829 278.8 16.6057 280.078 16.6057C280.961 16.6057 281.822 16.6362 282.659 16.6971C283.512 16.758 284.273 16.8874 284.943 17.0853C285.628 17.2832 286.168 17.5877 286.564 17.9988C286.96 18.4098 287.158 18.9731 287.158 19.6887C287.158 20.5565 286.8 21.2644 286.084 21.8125C285.384 22.3454 284.387 22.7336 283.093 22.9772C281.799 23.2208 280.269 23.3425 278.503 23.3425C276.965 23.3425 275.663 23.2436 274.598 23.0457C273.547 22.8478 272.687 22.5889 272.017 22.2692C271.347 21.9343 270.83 21.5765 270.464 21.1959C270.114 20.8001 269.878 20.4118 269.756 20.0312C269.65 19.6354 269.612 19.2852 269.642 18.9808Z" fill="white"/>
<path d="M75.5 31H161.028L168 61.6784L75.5 53.3116L75.5 31Z" fill="url(#paint0_linear_1_122)"/>
<path d="M90.0806 48.3032C87.8775 48.3032 86.1039 48.1112 84.7599 47.7271C83.4158 47.333 82.4355 46.757 81.8191 45.999C81.2127 45.231 80.9095 44.281 80.9095 43.1492C80.9095 42.0173 81.2127 41.0724 81.8191 40.3145C82.4355 39.5464 83.4158 38.9704 84.7599 38.5864C86.1039 38.1923 87.8775 37.9952 90.0806 37.9952C92.2837 37.9952 94.0573 38.1923 95.4013 38.5864C96.7454 38.9704 97.7206 39.5464 98.327 40.3145C98.9434 41.0724 99.2517 42.0173 99.2517 43.1492C99.2517 44.281 98.9434 45.231 98.327 45.999C97.7206 46.757 96.7454 47.333 95.4013 47.7271C94.0573 48.1112 92.2837 48.3032 90.0806 48.3032ZM90.0806 45.423C91.1215 45.423 92.0209 45.3624 92.7789 45.2411C93.5368 45.1097 94.1229 44.8823 94.5373 44.559C94.9516 44.2255 95.1588 43.7555 95.1588 43.1492C95.1588 42.5428 94.9516 42.078 94.5373 41.7546C94.1229 41.4211 93.5368 41.1937 92.7789 41.0724C92.0209 40.9411 91.1215 40.8754 90.0806 40.8754C89.0397 40.8754 88.1251 40.9411 87.3369 41.0724C86.5587 41.1937 85.9473 41.4211 85.5026 41.7546C85.0681 42.078 84.8508 42.5428 84.8508 43.1492C84.8508 43.7555 85.0681 44.2255 85.5026 44.559C85.9473 44.8823 86.5587 45.1097 87.3369 45.2411C88.1251 45.3624 89.0397 45.423 90.0806 45.423ZM100.845 40.5722H104.483V48H100.845V40.5722ZM109.94 40.3448C110.536 40.3448 111.112 40.4105 111.668 40.5419C112.224 40.6631 112.719 40.8754 113.153 41.1785C113.598 41.4817 113.952 41.8961 114.215 42.4216C114.477 42.9471 114.609 43.609 114.609 44.4074V48H110.971V44.8621C110.971 44.1042 110.774 43.5686 110.379 43.2553C109.985 42.9319 109.273 42.7702 108.242 42.7702C107.696 42.7702 107.166 42.8309 106.65 42.9521C106.145 43.0734 105.69 43.2199 105.286 43.3917C104.882 43.5534 104.563 43.7151 104.331 43.8768L104.301 43.3008C104.341 43.1189 104.478 42.8662 104.71 42.5428C104.953 42.2093 105.301 41.8758 105.756 41.5424C106.211 41.2089 106.782 40.9259 107.469 40.6935C108.166 40.461 108.99 40.3448 109.94 40.3448ZM116.201 37.5404H119.839V48H116.201V37.5404ZM125.438 36.6764V38.9502H121.588V36.6764H125.438ZM121.694 40.5722H125.332V48H121.694V40.5722ZM126.958 40.5722H130.596V48H126.958V40.5722ZM136.053 40.3448C136.649 40.3448 137.225 40.4105 137.781 40.5419C138.337 40.6631 138.832 40.8754 139.267 41.1785C139.712 41.4817 140.065 41.8961 140.328 42.4216C140.591 42.9471 140.722 43.609 140.722 44.4074V48H137.084V44.8621C137.084 44.1042 136.887 43.5686 136.493 43.2553C136.099 42.9319 135.386 42.7702 134.355 42.7702C133.81 42.7702 133.279 42.8309 132.764 42.9521C132.258 43.0734 131.804 43.2199 131.399 43.3917C130.995 43.5534 130.677 43.7151 130.444 43.8768L130.414 43.3008C130.455 43.1189 130.591 42.8662 130.823 42.5428C131.066 42.2093 131.415 41.8758 131.869 41.5424C132.324 41.2089 132.895 40.9259 133.582 40.6935C134.28 40.461 135.103 40.3448 136.053 40.3448ZM152.334 45.3321H155.912C155.821 45.9182 155.528 46.4285 155.033 46.8631C154.548 47.2976 153.835 47.6362 152.895 47.8787C151.966 48.1112 150.778 48.2274 149.333 48.2274C147.807 48.2274 146.488 48.1061 145.377 47.8636C144.275 47.621 143.426 47.2117 142.83 46.6357C142.234 46.0597 141.936 45.2815 141.936 44.3013C141.936 43.3311 142.224 42.558 142.8 41.982C143.386 41.3958 144.23 40.9764 145.331 40.7238C146.433 40.4711 147.767 40.3448 149.333 40.3448C150.869 40.3448 152.127 40.4812 153.108 40.7541C154.088 41.027 154.81 41.4716 155.275 42.0881C155.74 42.6944 155.962 43.518 155.942 44.559H145.634C145.685 44.8217 145.826 45.0642 146.059 45.2866C146.301 45.5089 146.67 45.6908 147.165 45.8323C147.671 45.9637 148.343 46.0294 149.181 46.0294C150.051 46.0294 150.763 45.9687 151.319 45.8475C151.885 45.7262 152.223 45.5544 152.334 45.3321ZM149.181 42.5428C148.11 42.5428 147.292 42.6591 146.726 42.8915C146.17 43.1239 145.841 43.3564 145.74 43.5888H152.41C152.34 43.326 152.057 43.0886 151.561 42.8763C151.066 42.654 150.273 42.5428 149.181 42.5428Z" fill="white"/>
<path d="M37.7561 23.9205V3.19284L31.4892 0L0 15.7162V33.1063L25.1707 45.6607V38.5001L6.35468 29.1075V19.436L31.4892 6.94365V20.738L37.7561 23.9205Z" fill="white"/>
<path d="M10.8185 24.3338L31.4892 34.6562V55.7972L0 40.019V46.9936L31.4394 62.7408L62.9268 46.9006V15.7162L56.5411 12.5234V43.1188L50.3415 46.3117V9.33053L44.0178 6.19969V49.4735L37.7561 52.5423V30.9054L25.1707 24.6128V17.2351L10.8185 24.3338Z" fill="white"/>
<defs>
<linearGradient id="paint0_linear_1_122" x1="75.5" y1="39.3424" x2="168.61" y2="48.4316" gradientUnits="userSpaceOnUse">
<stop stop-color="#2B41F5"/>
<stop offset="1" stop-color="#B71BEE"/>
</linearGradient>
</defs>
</svg>
